<svg
        width="243"
        height="243"
        viewBox="0 0 243 243"
        fill="none"
        xmlns="http://www.w3.org/2000/svg"
      >
        <g clip-path="url(#clip0_25_3)">
          <path
            d="M156.289 110.109C155.624 110.109 154.96 109.825 154.485 109.303L138.918 91.5996H129.568C128.239 91.5996 127.195 90.5555 127.195 89.2266V66.7775L122.829 64.4045C122.307 64.1197 121.88 63.6451 121.69 63.0281L117.134 48.7424C116.801 47.7457 117.181 46.7016 118.035 46.0846L137.399 32.4158C138.016 31.9887 138.776 31.8463 139.488 32.0836C140.2 32.3209 140.769 32.8904 141.006 33.6023L144.946 45.4676L160.465 49.4543L161.51 48.2678C164.357 44.9455 169.103 44.0912 172.948 46.132C175.748 47.6033 177.599 50.3561 177.931 53.441L179.26 66.208C179.307 66.7301 179.212 67.2522 178.928 67.6793L176.033 72.3779L179.165 81.7277L174.656 83.2465L171.192 72.8525C170.954 72.1881 171.049 71.4762 171.429 70.8592L174.466 65.9232L173.232 53.9631C173.09 52.3969 172.141 51.068 170.764 50.3561C168.866 49.3594 166.54 49.7865 165.117 51.4002L163.123 53.6783C162.554 54.3428 161.604 54.6275 160.75 54.4377L142.525 49.7865C141.766 49.5967 141.101 48.9797 140.864 48.2203L137.542 38.1586L122.212 48.9797L125.961 60.7025L130.755 63.2654C131.514 63.6926 131.989 64.4994 131.989 65.3537V86.8535H140.057C140.722 86.8535 141.386 87.1383 141.861 87.6603L156.716 104.556L160.323 101.946L173.137 92.3115C173.66 91.9318 174.324 91.742 174.988 91.8844C175.653 91.9793 176.222 92.359 176.555 92.9285L185.382 106.455L181.396 109.065L173.944 97.6746L163.123 105.79C163.123 105.79 163.076 105.79 163.076 105.838L157.665 109.682C157.238 109.967 156.763 110.109 156.289 110.109Z"
            fill="white"
          />
          <path
            d="M147.885 81.6792L151.706 84.4936L144.782 93.8923L140.961 91.0779L147.885 81.6792Z"
            fill="white"
          />
          <path
            d="M125.439 64.1672L122.449 60.4652L130.47 53.9631C130.755 53.7258 131.04 53.5834 131.372 53.4885L138.349 51.7799L139.488 56.3836L133.033 57.9973L125.439 64.1672Z"
            fill="white"
          />
          <path
            d="M240.627 243H159.943C158.614 243 157.57 241.956 157.57 240.627V222.117H162.316V238.254H238.254V147.319C238.254 128.572 230.043 111.011 215.71 99.0035L185.003 109.635C177.314 124.917 171.524 141.101 167.679 157.76L163.076 156.716C167.062 139.345 173.137 122.497 181.206 106.645C181.491 106.075 181.965 105.696 182.535 105.458L215.378 94.0676C216.137 93.7828 216.991 93.9252 217.656 94.4473C233.745 107.404 242.953 126.626 242.953 147.271V240.627C243 241.956 241.956 243 240.627 243Z"
            fill="white"
          />
          <path
            d="M199.788 62.9584L218.305 95.2973L214.185 97.6561L195.669 65.3172L199.788 62.9584Z"
            fill="white"
          />
          <path
            d="M177.172 68.8184L176.65 64.1197L195.112 62.0314L192.502 31.9887C192.359 30.6123 192.169 29.2359 191.837 27.8596C188.705 14.2383 176.792 4.74609 162.886 4.74609C150.404 4.74609 138.491 8.63789 128.382 15.9469L100.38 36.3076L106.645 38.0637C107.546 38.301 108.211 39.0604 108.353 40.0096L109.303 46.5592L119.269 45.6574L119.696 50.4035L107.499 51.4951C106.218 51.59 105.126 50.7357 104.936 49.4543L103.892 42.1928L94.3998 39.535C93.5455 39.2977 92.881 38.5857 92.6912 37.684C92.5488 36.7822 92.881 35.8805 93.6404 35.3584L125.582 12.15C136.498 4.17656 149.407 0 162.886 0C179.023 0 192.834 11.0109 196.488 26.7205C196.868 28.2867 197.105 29.9004 197.248 31.5141L200.048 63.8824C200.143 65.1639 199.241 66.3029 197.96 66.4453L177.172 68.8184Z"
            fill="white"
          />
          <path
            d="M192.834 201.899C192.407 201.899 191.979 201.804 191.6 201.567L153.821 179.07C152.729 178.406 152.35 177.029 152.919 175.938L172.521 138.396L176.745 140.579L158.187 176.128L192.122 196.346L211.866 167.442C218.273 158.092 221.643 147.129 221.643 135.786H226.389C226.389 148.078 222.734 159.991 215.805 170.147L194.827 200.902C194.353 201.567 193.593 201.899 192.834 201.899Z"
            fill="white"
          />
          <path
            d="M80.3039 223.541H60.75C60.6076 223.541 60.5127 223.541 60.3703 223.494L42.3351 220.504C41.1961 220.314 40.3418 219.317 40.3418 218.178V197.248C40.3418 196.346 40.8639 195.539 41.6232 195.112L51.59 190.081C51.9222 189.891 52.3019 189.844 52.6816 189.844H56.2412L60.0855 184.623C60.5127 184.006 61.2246 183.674 61.984 183.674H78.0732C78.5478 183.674 79.0224 183.816 79.4021 184.101L90.8877 191.885L148.458 182.962L153.156 175.748C153.868 174.656 155.245 174.371 156.384 174.988L185.952 192.644C186.569 193.024 186.996 193.641 187.091 194.353C187.186 195.064 186.949 195.776 186.474 196.298L169.578 214.286C169.151 214.761 168.486 215.046 167.869 215.046H94.7795L81.6803 223.209C81.2057 223.399 80.7785 223.541 80.3039 223.541ZM60.9398 218.795H79.6394L92.7387 210.632C93.1183 210.394 93.5455 210.252 94.0201 210.252H166.778L180.969 195.159L155.909 180.209L151.875 186.379C151.495 186.949 150.926 187.328 150.261 187.423L90.6504 196.678C90.0808 196.773 89.4638 196.631 88.9418 196.298L77.3138 188.42H63.1705L59.3262 193.641C58.899 194.258 58.1871 194.59 57.4277 194.59H53.2512L45.0879 198.719V216.185L60.9398 218.795Z"
            fill="white"
          />
          <path
            d="M57.4277 189.844H71.666V194.59H57.4277V189.844Z"
            fill="white"
          />
          <path
            d="M56.8598 196.423L57.9039 201.055L43.1736 204.375L42.1295 199.743L56.8598 196.423Z"
            fill="white"
          />
          <path
            d="M42.7148 204.557H57.4277V209.303H42.7148V204.557Z"
            fill="white"
          />
          <path
            d="M43.0451 209.536L57.764 211.15L57.2467 215.868L42.5277 214.254L43.0451 209.536Z"
            fill="white"
          />
          <path
            d="M135.264 68.8184C135.074 68.8184 134.884 68.8184 134.694 68.7709C133.982 68.581 133.413 68.1064 133.08 67.4894L130.755 62.601L135.026 60.5602L136.07 62.7908L141.386 58.6617L144.329 62.4111L136.687 68.3912C136.308 68.6285 135.786 68.8184 135.264 68.8184Z"
            fill="white"
          />
          <path
            d="M107.214 243H2.37322C1.424 243 0.569702 242.43 0.190015 241.576C-0.189673 240.722 0.000170866 239.725 0.617163 239.013L29.0937 208.448L33.033 186.094C31.9888 181.68 24.7273 150.926 25.0595 140.722C25.6765 121.073 51.0207 111.059 61.7469 111.059H61.7943C67.7269 111.059 71.6662 113.384 74.8461 115.283C78.026 117.181 79.9718 118.225 82.6771 117.561C86.2367 116.706 89.3691 114.476 92.1693 112.482C95.1119 110.394 97.6748 108.638 100.38 108.448C103.94 108.211 107.167 112.388 108.401 114.191C112.293 119.886 115.33 129.663 111.249 138.444C108.306 144.708 102.468 149.692 96.8205 154.485C91.315 159.184 86.0943 163.598 85.6672 167.822C85.4773 169.388 85.9994 173.47 91.315 182.82L87.1859 185.145C82.5822 176.982 80.5414 171.144 80.9685 167.3C81.633 161.177 87.5181 156.146 93.783 150.831C99.0512 146.37 104.509 141.718 106.977 136.355C110.584 128.619 106.787 120.693 105.506 118.415C103.512 114.903 101.377 113.194 100.665 113.099C99.2885 113.194 97.1527 114.713 94.922 116.279C91.932 118.368 88.2301 120.978 83.8162 122.07C79.0701 123.209 75.7004 121.263 72.4256 119.269C69.483 117.466 66.398 115.71 61.7943 115.71H61.7469C52.6818 115.71 30.3277 124.443 29.8056 140.769C29.4734 150.926 37.6842 185.05 37.7316 185.43C37.8265 185.762 37.8265 186.047 37.7791 186.379L33.65 209.872C33.5551 210.347 33.3652 210.727 33.033 211.059L7.78376 238.112H104.462L101.234 212.767L105.933 212.15L109.493 240.152C109.587 240.817 109.35 241.529 108.923 242.003C108.543 242.715 107.926 243 107.214 243Z"
            fill="white"
          />
          <path
            d="M67.1875 122.479L72.3066 127.896L68.8562 131.156L63.7371 125.739L67.1875 122.479Z"
            fill="white"
          />
          <path
            d="M92.359 144.566L89.891 140.532C104.841 131.324 107.119 121.168 107.119 121.025L111.77 121.975C111.676 122.497 109.065 134.314 92.359 144.566Z"
            fill="white"
          />
          <path
            d="M60.7025 183.626C56.3361 183.626 45.8472 183.389 42.8572 181.206C38.9654 178.358 33.5074 163.645 31.9412 159.184L36.4025 157.618C39.3926 166.066 43.759 176.033 45.6574 177.409C46.6066 178.026 51.7324 178.88 60.2754 178.928C68.4861 178.928 73.6119 178.168 74.7984 177.599C76.0799 175.273 74.2289 162.981 72.0457 159.421C71.4287 158.472 69.0082 157.475 66.6826 156.526C62.3162 154.77 56.8582 152.539 53.3935 147.509C47.6982 139.25 48.3627 128.192 48.4101 127.765L53.1562 128.097C53.1562 128.192 52.5867 137.969 57.2853 144.851C59.9431 148.743 64.4519 150.546 68.4387 152.16C71.7609 153.489 74.656 154.675 76.0799 156.953C78.3105 160.56 82.2498 176.934 78.1681 181.016C75.89 183.152 67.442 183.626 60.7025 183.626Z"
            fill="white"
          />
          <path
            d="M94.3942 111.807L106.918 113.448L106.301 118.156L93.7772 116.515L94.3942 111.807Z"
            fill="white"
          />
        </g>
        <defs>
          <clipPath id="clip0_25_3">
            <rect width="243" height="243" fill="white" />
          </clipPath>
        </defs>
      </svg>