<?xml version="1.0" encoding="UTF-8" standalone="no"?>
<!-- Created with Inkscape (http://www.inkscape.org/) -->

<svg
   version="1.1"
   id="svg303"
   xml:space="preserve"
   width="682.66669"
   height="682.66669"
   viewBox="0 0 682.66669 682.66669"
   xmlns="http://www.w3.org/2000/svg"
   xmlns:svg="http://www.w3.org/2000/svg"><defs
     id="defs307"><clipPath
       clipPathUnits="userSpaceOnUse"
       id="clipPath325"><path
         d="M 0,512 H 512 V 0 H 0 Z"
         id="path323" /></clipPath></defs><g
     id="g309"
     transform="matrix(1.3333333,0,0,-1.3333333,0,682.66667)"><g
       id="g311"
       transform="translate(342.8037,250.3433)"><path
         d="M 0,0 11.314,11.313"
         style="fill:none;stroke:#000000;stroke-width:15;stroke-linecap:butt;stroke-linejoin:miter;stroke-miterlimit:10;stroke-dasharray:none;stroke-opacity:1"
         id="path313" /></g><g
       id="g315"
       transform="translate(365.4316,272.9707)"><path
         d="M 0,0 11.313,11.313"
         style="fill:none;stroke:#000000;stroke-width:15;stroke-linecap:butt;stroke-linejoin:miter;stroke-miterlimit:10;stroke-dasharray:none;stroke-opacity:1"
         id="path317" /></g><g
       id="g319"><g
         id="g321"
         clip-path="url(#clipPath325)"><g
           id="g327"
           transform="translate(250.3394,384.0005)"><path
             d="m 0,0 c 47.081,43.282 120.356,42.099 166.003,-3.55 40.881,-40.88 46.1,-103.917 15.658,-150.454"
             style="fill:none;stroke:#000000;stroke-width:15;stroke-linecap:butt;stroke-linejoin:miter;stroke-miterlimit:10;stroke-dasharray:none;stroke-opacity:1"
             id="path329" /></g><g
           id="g331"
           transform="translate(400,197.0518)"><path
             d="m 0,0 c -46.79,-32.609 -111.624,-28.044 -153.362,13.693 -8.845,8.845 -16.021,18.727 -21.527,29.255"
             style="fill:none;stroke:#000000;stroke-width:15;stroke-linecap:butt;stroke-linejoin:miter;stroke-miterlimit:10;stroke-dasharray:none;stroke-opacity:1"
             id="path333" /></g><g
           id="g335"
           transform="translate(314.5195,176.8042)"><path
             d="M 0,0 135.765,135.764"
             style="fill:none;stroke:#000000;stroke-width:15;stroke-linecap:butt;stroke-linejoin:miter;stroke-miterlimit:10;stroke-dasharray:none;stroke-opacity:1"
             id="path337" /></g><g
           id="g339"
           transform="translate(396.5439,253.1714)"><path
             d="m 0,0 96.805,-78.794 c 13.276,-10.807 14.295,-30.724 2.19,-42.828 -12.104,-12.105 -32.021,-11.086 -42.828,2.19 l -78.794,96.805"
             style="fill:none;stroke:#000000;stroke-width:15;stroke-linecap:butt;stroke-linejoin:miter;stroke-miterlimit:10;stroke-dasharray:none;stroke-opacity:1"
             id="path341" /></g><g
           id="g343"
           transform="translate(108,193.6592)"><path
             d="m 0,0 c -56.754,9.521 -100,58.881 -100,118.341 0,66.274 53.726,120 120,120 66.274,0 120,-53.726 120,-120 C 140,58.881 96.754,9.521 40,0"
             style="fill:none;stroke:#000000;stroke-width:15;stroke-linecap:butt;stroke-linejoin:miter;stroke-miterlimit:10;stroke-dasharray:none;stroke-opacity:1"
             id="path345" /></g><g
           id="g347"
           transform="translate(32,240)"><path
             d="M 0,0 H 160"
             style="fill:none;stroke:#000000;stroke-width:15;stroke-linecap:butt;stroke-linejoin:miter;stroke-miterlimit:10;stroke-dasharray:none;stroke-opacity:1"
             id="path349" /></g><g
           id="g351"
           transform="translate(153.436,144)"><path
             d="M 0,0 3.299,-32.167 C 5.045,-49.196 -8.317,-64 -25.436,-64 c -17.119,0 -30.481,14.804 -28.735,31.833 L -41.436,92"
             style="fill:none;stroke:#000000;stroke-width:15;stroke-linecap:butt;stroke-linejoin:miter;stroke-miterlimit:10;stroke-dasharray:none;stroke-opacity:1"
             id="path353" /></g><g
           id="g355"
           transform="translate(144,236)"><path
             d="M 0,0 7.795,-76"
             style="fill:none;stroke:#000000;stroke-width:15;stroke-linecap:butt;stroke-linejoin:miter;stroke-miterlimit:10;stroke-dasharray:none;stroke-opacity:1"
             id="path357" /></g><g
           id="g359"
           transform="translate(104,272)"><path
             d="M 0,0 H 16"
             style="fill:none;stroke:#000000;stroke-width:15;stroke-linecap:butt;stroke-linejoin:miter;stroke-miterlimit:10;stroke-dasharray:none;stroke-opacity:1"
             id="path361" /></g><g
           id="g363"
           transform="translate(136,272)"><path
             d="M 0,0 H 16"
             style="fill:none;stroke:#000000;stroke-width:15;stroke-linecap:butt;stroke-linejoin:miter;stroke-miterlimit:10;stroke-dasharray:none;stroke-opacity:1"
             id="path365" /></g><g
           id="g367"
           transform="translate(288,128)"><path
             d="m 0,0 c 0,-26.51 -21.49,-48 -48,-48 -26.51,0 -48,21.49 -48,48 0,26.51 21.49,48 48,48 C -21.49,48 0,26.51 0,0 Z"
             style="fill:none;stroke:#000000;stroke-width:15;stroke-linecap:butt;stroke-linejoin:miter;stroke-miterlimit:10;stroke-dasharray:none;stroke-opacity:1"
             id="path369" /></g></g></g></g></svg>
