<svg id="Capa_1" enable-background="new 0 0 512 512" height="512" viewBox="0 0 512 512" width="512" xmlns="http://www.w3.org/2000/svg"><g><g><path d="m425.496 107.386c-4.139 0-7.495-3.355-7.495-7.495 0-5.126-1.662-7.26-4.415-10.795-3.198-4.107-7.578-9.731-7.578-20.006 0-10.274 4.38-15.897 7.578-20.004 2.753-3.535 4.414-5.668 4.414-10.793 0-5.126-1.662-7.259-4.415-10.794-3.198-4.107-7.578-9.73-7.578-20.004 0-4.14 3.356-7.495 7.495-7.495s7.495 3.355 7.495 7.495c0 5.125 1.662 7.258 4.414 10.793 3.198 4.107 7.578 9.731 7.578 20.005s-4.38 15.897-7.578 20.004c-2.753 3.535-4.414 5.668-4.414 10.793 0 5.126 1.662 7.26 4.415 10.795 3.198 4.107 7.578 9.731 7.578 20.006.001 4.14-3.355 7.495-7.494 7.495z"/></g><g><path d="m390.227 107.386c-4.139 0-7.495-3.355-7.495-7.495 0-5.126-1.662-7.26-4.415-10.795-3.198-4.107-7.578-9.731-7.578-20.006 0-10.274 4.38-15.897 7.578-20.004 2.753-3.535 4.414-5.668 4.414-10.793 0-4.14 3.356-7.495 7.495-7.495s7.495 3.355 7.495 7.495c0 10.274-4.38 15.897-7.578 20.004-2.753 3.535-4.414 5.668-4.414 10.793 0 5.126 1.662 7.26 4.415 10.795 3.198 4.107 7.578 9.731 7.578 20.006.001 4.14-3.355 7.495-7.495 7.495z"/></g><g><path d="m299.578 497.01h-84.211v-76.147c0-4.541-1.341-8.951-3.88-12.755-.63-.945-1.467-1.734-2.448-2.308l-38.198-22.36c-11.577-6.776-21.486-15.684-29.452-26.477l-46.765-63.356c-.915-1.239-.602-2.438-.334-3.042s.947-1.642 2.48-1.795l7.986-.802c7.03-.705 13.992.754 20.143 4.224l57.024 32.15c2.321 1.308 5.162 1.288 7.462-.058 2.3-1.344 3.714-3.807 3.714-6.471v-28.116c0-4.14-3.356-7.495-7.495-7.495s-7.495 3.355-7.495 7.495v15.286l-45.847-25.849c-8.856-4.992-18.882-7.094-29.003-6.082l-7.987.802c-6.533.656-12.024 4.631-14.686 10.634-2.662 6.002-1.923 12.739 1.976 18.022l46.765 63.356c9.181 12.437 20.6 22.703 33.94 30.512l36.451 21.337c.432.996.657 2.064.657 3.148v76.603c0 8.014 6.52 14.535 14.534 14.535h84.667c4.139 0 7.495-3.355 7.495-7.495s-3.354-7.496-7.493-7.496z"/><path d="m414.965 119.795h-120.26v-38.564c0-18.104-14.331-33.34-32.433-33.591-13.449-.186-25.095 7.747-30.362 19.197-5.906-4.873-13.536-7.729-21.823-7.502-17.924.491-31.978 15.658-31.978 33.589v26.871h-30.499c-6.316 0-11.436 5.12-11.436 11.436v27.627c0 6.316 5.12 11.436 11.436 11.436h30.499v84.389c0 4.104 3.162 7.683 7.264 7.806 4.245.127 7.726-3.275 7.726-7.492v-84.703h35.813v68.548c0 4.104 3.162 7.683 7.264 7.806 4.245.128 7.726-3.275 7.726-7.492v-158.182c0-9.697 7.526-17.967 17.216-18.333 10.187-.385 18.597 7.791 18.597 17.894v144.643 32.9 32.3c0 18.029 14.253 33.159 32.279 33.492 10.425.192 19.784-4.493 25.945-11.921 6.039 7.281 15.15 11.927 25.327 11.927 6.604 0 12.755-1.963 17.914-5.327v47.242c0 15.277-6.479 29.589-17.079 40.59-3.347 3.474-5.189 8.069-5.189 12.95v77.679h-23.79c-4.104 0-7.683 3.163-7.806 7.266-.127 4.245 3.276 7.725 7.492 7.725h24.56c8.027 0 14.534-6.507 14.534-14.534v-78.137c0-.971.366-1.904 1.006-2.561 13.711-14.093 21.262-32.681 21.262-52.342l-.008-139.249c0-18.139-14.757-32.896-32.897-32.896-10.177 0-19.288 4.646-25.327 11.927-6.039-7.281-15.15-11.927-25.327-11.927-6.601 0-12.749 1.961-17.907 5.322v-27.31h120.26c6.071 0 10.993-4.922 10.993-10.993v-28.513c.001-6.071-4.921-10.993-10.992-10.993zm-215.597 35.509h-48.204v-20.518h48.204zm29.543 0h-14.553v-20.518h14.553zm0-35.509h-35.813v-27.575c0-9.874 8.033-17.907 17.906-17.907s17.907 8.033 17.907 17.907zm116.543 103.539c.926-9.01 8.561-16.061 17.811-16.061 9.874 0 17.906 8.032 17.906 17.906v65.801c0 7.49-4.627 13.912-11.17 16.58 2.658-2.032 4.381-5.225 4.381-8.829v-4.491c0-1.8-1.459-3.26-3.26-3.26h-15.715c-1.8 0-3.26 1.46-3.26 3.26v4.491c0 3.604 1.722 6.798 4.381 8.829-5.998-2.446-10.387-8.046-11.074-14.735.034-.611.055-1.225.055-1.845v-65.801c0-.62-.021-1.234-.055-1.845zm-32.842-16.061c9.251 0 16.885 7.051 17.811 16.061-.034.611-.055 1.225-.055 1.845v65.801c0 .619.021 1.234.055 1.845-.667 6.485-4.814 11.943-10.533 14.5 2.482-2.039 4.066-5.131 4.066-8.594v-4.491c0-1.8-1.459-3.26-3.26-3.26h-15.715c-1.8 0-3.26 1.46-3.26 3.26v4.491c0 3.702 1.817 6.972 4.599 8.993-6.775-2.554-11.616-9.085-11.616-16.743v-32.901-32.9c.001-9.875 8.034-17.907 17.908-17.907zm97.7-51.969h-115.607v-20.518h115.607z"/></g></g></svg>